<svg width="106" height="14" viewBox="0 0 106 14" fill="none" xmlns="http://www.w3.org/2000/svg">
<path d="M18.5079 0.335938H15.445C15.2781 0.335938 15.1175 0.410896 15.0276 0.53775L8.43313 9.80958L8.22766 0.774158C8.22123 0.531984 8.00292 0.341704 7.73323 0.341704H4.84372C4.6254 0.341704 4.43919 0.468557 4.37498 0.653071L0.0214524 13.2634C-0.0234955 13.4018 0.00218902 13.546 0.098506 13.6555C0.194823 13.7709 0.336088 13.8343 0.496616 13.8343H2.40369C2.62201 13.8343 2.80822 13.7074 2.87243 13.5229L5.75552 5.13907L5.85826 13.4018C5.85826 13.644 6.083 13.8401 6.35268 13.8401H8.2405C8.41387 13.8401 8.56798 13.7651 8.65787 13.6325L14.5268 5.28898L11.7721 13.2634C11.7272 13.4018 11.7529 13.546 11.8492 13.6555C11.9455 13.7709 12.0868 13.8343 12.2473 13.8343H14.18C14.3984 13.8343 14.5846 13.7074 14.6488 13.5229L18.983 0.912544C19.028 0.774158 19.0023 0.635773 18.906 0.520451C18.8161 0.40513 18.6684 0.335938 18.5079 0.335938Z" fill="white"/>
<path d="M18.9856 0.910684L14.6513 13.5211C14.5871 13.7056 14.3945 13.8324 14.1826 13.8324H12.2498C12.0893 13.8324 11.948 13.769 11.8517 13.6537C11.7554 13.5384 11.7297 13.3942 11.7746 13.2616L14.5229 5.28136L8.65396 13.6249C8.56407 13.7517 8.40354 13.8324 8.23659 13.8324H6.3552C6.08551 13.8324 5.86719 13.6364 5.86077 13.3942L5.75803 5.13721L2.87495 13.5211C2.81074 13.7056 2.6181 13.8324 2.40621 13.8324H0.49271C0.332181 13.8324 0.190917 13.769 0.0945997 13.6537C-0.00171723 13.5384 -0.0274017 13.3942 0.0175462 13.2616L4.37107 0.651211C4.43528 0.466697 4.62792 0.339844 4.83981 0.339844H7.73574C8.00543 0.339844 8.22375 0.53589 8.23017 0.772298L8.43565 9.80772L15.0301 0.541656C15.12 0.414803 15.2741 0.339844 15.4475 0.339844H18.5104C18.6709 0.339844 18.8122 0.40327 18.9085 0.518592C19.0048 0.633913 19.0305 0.772298 18.9856 0.910684Z" fill="white"/>
<path d="M26.6358 0.561367C26.5716 0.376853 26.379 0.25 26.1671 0.25H23.3161C23.0978 0.25 22.9116 0.376853 22.8474 0.561367L18.4746 13.1717C18.4296 13.3101 18.4553 13.4543 18.5516 13.5638C18.6479 13.6792 18.7892 13.7426 18.9497 13.7426H21.0816C21.2999 13.7426 21.4989 13.61 21.5567 13.4197L22.2438 11.2055H27.2458L27.9329 13.4197C27.9907 13.61 28.1897 13.7426 28.4081 13.7426H30.5527C30.7133 13.7426 30.8545 13.6792 30.9508 13.5638C31.0471 13.4485 31.0728 13.3044 31.0215 13.1717L26.6358 0.561367ZM22.9758 8.89333L24.7416 3.20799L26.5074 8.89333H22.9758Z" fill="white"/>
<path d="M58.1905 0.561367C58.1263 0.376853 57.9337 0.25 57.7218 0.25H54.8708C54.6525 0.25 54.4663 0.376853 54.4021 0.561367L50.0293 13.1717C49.9843 13.3101 50.01 13.4543 50.1063 13.5638C50.2026 13.6792 50.3439 13.7426 50.5044 13.7426H52.6362C52.8546 13.7426 53.0536 13.61 53.1114 13.4197L53.7985 11.2055H58.8005L59.4876 13.4197C59.5454 13.61 59.7444 13.7426 59.9628 13.7426H62.1074C62.2679 13.7426 62.4092 13.6792 62.5055 13.5638C62.6018 13.4485 62.6275 13.3044 62.5761 13.166L58.1905 0.561367ZM54.5305 8.89333L56.2963 3.20799L58.0621 8.89333H54.5305Z" fill="white"/>
<path d="M47.2496 0.25H44.2637C44.0518 0.25 43.8592 0.371087 43.795 0.555601L40.4111 9.71211L37.0271 0.555601C36.9629 0.376853 36.7703 0.25 36.5584 0.25H33.5726C33.3029 0.25 33.0781 0.446046 33.0781 0.693987V13.3044C33.0781 13.5465 33.3029 13.7484 33.5726 13.7484H35.4925C35.7622 13.7484 35.9869 13.5465 35.9869 13.3044V5.0589L38.9984 13.4485C39.0626 13.633 39.2552 13.7541 39.4671 13.7541H41.355C41.5733 13.7541 41.7595 13.633 41.8237 13.4485L44.8352 5.0589V13.3101C44.8352 13.5523 45.0535 13.7541 45.3296 13.7541H47.2496C47.5192 13.7541 47.744 13.5523 47.744 13.3101V0.693987C47.744 0.451812 47.5192 0.25 47.2496 0.25Z" fill="white"/>
<path d="M47.744 13.3101C47.744 13.5523 47.5192 13.7541 47.2496 13.7541H45.3296C45.0599 13.7541 44.8352 13.5523 44.8352 13.3101V5.0589L41.8237 13.4485C41.7595 13.633 41.5669 13.7541 41.355 13.7541H39.4671C39.2552 13.7541 39.0626 13.633 38.9984 13.4485L35.9869 5.0589V13.3101C35.9869 13.5523 35.7622 13.7541 35.4925 13.7541H33.5726C33.3029 13.7541 33.0781 13.5523 33.0781 13.3101V0.693987C33.0781 0.451812 33.3029 0.25 33.5726 0.25H36.5584C36.7703 0.25 36.9629 0.371087 37.0271 0.555601L40.4111 9.71211L43.795 0.555601C43.8592 0.376853 44.0518 0.25 44.2637 0.25H47.2496C47.5192 0.25 47.744 0.446046 47.744 0.693987V13.3101Z" fill="white"/>
<path d="M73.2052 8.47611H73.1153C73.0126 8.55684 72.942 8.67793 72.942 8.81054V9.04119C72.942 9.82537 72.6723 10.4423 72.1457 10.869C71.6192 11.2957 70.8679 11.5148 69.9048 11.5148C68.9287 11.5148 68.1582 11.2842 67.6317 10.8287C67.0987 10.3731 66.829 9.69852 66.829 8.83361V5.18946C66.829 4.32455 67.0987 3.64992 67.6317 3.18287C68.1646 2.72158 68.9288 2.48517 69.9112 2.48517C70.8744 2.48517 71.6256 2.69852 72.1522 3.11944C72.6787 3.54036 72.9484 4.15733 72.9484 4.93575V5.05684C72.9484 5.29901 73.1731 5.50082 73.4428 5.50082H75.4976C75.7673 5.50082 75.992 5.29901 75.992 5.05684V4.99918C75.992 4.01895 75.7416 3.13674 75.2407 2.38715C74.7399 1.6318 74.0271 1.04366 73.1218 0.628501C72.21 0.213344 71.144 0 69.9561 0C68.7554 0 67.6766 0.21911 66.752 0.645799C65.8273 1.07249 65.1018 1.67792 64.5816 2.43904C64.068 3.20016 63.8047 4.08237 63.8047 5.0626V8.9547C63.8047 9.93493 64.068 10.8171 64.5816 11.5783C65.0953 12.3394 65.8273 12.939 66.7456 13.36C67.6702 13.7809 68.749 13.9942 69.9497 13.9942C71.1376 13.9942 72.1971 13.7809 73.1089 13.3657C74.0143 12.9506 74.727 12.3567 75.2279 11.6071C75.7287 10.8517 75.9792 9.97529 75.9792 8.99506V8.80478C75.9792 8.5626 75.7544 8.36079 75.4847 8.36079H73.43C73.308 8.36079 73.1924 8.40115 73.1089 8.47035L73.2052 8.47611Z" fill="white"/>
<path d="M81.1993 0.25H79.1702C78.9005 0.25 78.6758 0.446046 78.6758 0.693987V13.3044C78.6758 13.5465 78.9005 13.7484 79.1702 13.7484H81.2057C81.4754 13.7484 81.7001 13.5465 81.7001 13.3044V0.693987C81.6937 0.451812 81.4754 0.25 81.1993 0.25Z" fill="white"/>
<path d="M90.6521 2.69481H93.9847C94.2544 2.69481 94.4791 2.49876 94.4791 2.25082V0.693987C94.4791 0.451812 94.2608 0.25 93.9847 0.25H84.2952C84.0255 0.25 83.8008 0.446046 83.8008 0.693987V2.25082C83.8008 2.493 84.0255 2.69481 84.2952 2.69481H87.6278V13.3101C87.6278 13.5523 87.8461 13.7541 88.1222 13.7541H90.1577C90.4274 13.7541 90.6521 13.5523 90.6521 13.3101V2.69481Z" fill="white"/>
<path d="M101.591 0.561367C101.527 0.376853 101.335 0.25 101.123 0.25H98.2717C98.0534 0.25 97.8672 0.376853 97.803 0.561367L93.4238 13.1775C93.3788 13.3159 93.4045 13.46 93.5008 13.5696C93.5972 13.6849 93.7384 13.7484 93.899 13.7484H96.0308C96.2491 13.7484 96.4481 13.6157 96.5059 13.4255L97.193 11.2113H102.195L102.882 13.4255C102.94 13.6157 103.139 13.7484 103.357 13.7484H105.502C105.662 13.7484 105.804 13.6849 105.9 13.5696C105.996 13.4543 106.022 13.3101 105.971 13.1717L101.591 0.561367ZM97.925 8.89333L99.6908 3.20799L101.457 8.89333H97.925Z" fill="white"/>
</svg>
