<svg width="106" height="14" viewBox="0 0 106 14" fill="none" xmlns="http://www.w3.org/2000/svg">
<path d="M18.5118 0.335938H15.4489C15.282 0.335938 15.1214 0.410896 15.0315 0.53775L8.43704 9.80958L8.23156 0.774158C8.22514 0.531984 8.00682 0.341704 7.73713 0.341704H4.84763C4.62931 0.341704 4.44309 0.468557 4.37888 0.653071L0.0253587 13.2634C-0.0195892 13.4018 0.00609527 13.546 0.102412 13.6555C0.198729 13.7709 0.339994 13.8343 0.500522 13.8343H2.4076C2.62592 13.8343 2.81213 13.7074 2.87634 13.5229L5.75943 5.13907L5.86216 13.4018C5.86216 13.644 6.0869 13.8401 6.35659 13.8401H8.2444C8.41777 13.8401 8.57188 13.7651 8.66178 13.6325L14.5307 5.28898L11.776 13.2634C11.7311 13.4018 11.7568 13.546 11.8531 13.6555C11.9494 13.7709 12.0907 13.8343 12.2512 13.8343H14.1839C14.4023 13.8343 14.5885 13.7074 14.6527 13.5229L18.987 0.912544C19.0319 0.774158 19.0062 0.635773 18.9099 0.520451C18.82 0.40513 18.6723 0.335938 18.5118 0.335938Z" fill="#161616"/>
<path d="M18.9875 0.910684L14.6533 13.5211C14.589 13.7056 14.3964 13.8324 14.1845 13.8324H12.2517C12.0912 13.8324 11.95 13.769 11.8536 13.6537C11.7573 13.5384 11.7316 13.3942 11.7766 13.2616L14.5248 5.28136L8.65592 13.6249C8.56602 13.7517 8.40549 13.8324 8.23854 13.8324H6.35715C6.08747 13.8324 5.86915 13.6364 5.86273 13.3942L5.75999 5.13721L2.8769 13.5211C2.81269 13.7056 2.62006 13.8324 2.40816 13.8324H0.494663C0.334135 13.8324 0.19287 13.769 0.0965528 13.6537C0.000235894 13.5384 -0.0254486 13.3942 0.0194993 13.2616L4.37302 0.651211C4.43724 0.466697 4.62987 0.339844 4.84177 0.339844H7.7377C8.00738 0.339844 8.2257 0.53589 8.23212 0.772298L8.4376 9.80772L15.0321 0.541656C15.122 0.414803 15.2761 0.339844 15.4495 0.339844H18.5123C18.6729 0.339844 18.8141 0.40327 18.9105 0.518592C19.0068 0.633913 19.0325 0.772298 18.9875 0.910684Z" fill="#161616"/>
<path d="M26.6358 0.561367C26.5716 0.376853 26.379 0.25 26.1671 0.25H23.3161C23.0978 0.25 22.9116 0.376853 22.8474 0.561367L18.4746 13.1717C18.4296 13.3101 18.4553 13.4543 18.5516 13.5638C18.6479 13.6792 18.7892 13.7426 18.9497 13.7426H21.0816C21.2999 13.7426 21.4989 13.61 21.5567 13.4197L22.2438 11.2055H27.2458L27.9329 13.4197C27.9907 13.61 28.1897 13.7426 28.4081 13.7426H30.5527C30.7133 13.7426 30.8545 13.6792 30.9508 13.5638C31.0471 13.4485 31.0728 13.3044 31.0215 13.1717L26.6358 0.561367ZM22.9758 8.89333L24.7416 3.20799L26.5074 8.89333H22.9758Z" fill="#161616"/>
<path d="M58.1905 0.561367C58.1263 0.376853 57.9337 0.25 57.7218 0.25H54.8708C54.6525 0.25 54.4663 0.376853 54.4021 0.561367L50.0293 13.1717C49.9843 13.3101 50.01 13.4543 50.1063 13.5638C50.2026 13.6792 50.3439 13.7426 50.5044 13.7426H52.6362C52.8546 13.7426 53.0536 13.61 53.1114 13.4197L53.7985 11.2055H58.8005L59.4876 13.4197C59.5454 13.61 59.7444 13.7426 59.9628 13.7426H62.1074C62.2679 13.7426 62.4092 13.6792 62.5055 13.5638C62.6018 13.4485 62.6275 13.3044 62.5761 13.166L58.1905 0.561367ZM54.5305 8.89333L56.2963 3.20799L58.0621 8.89333H54.5305Z" fill="#161616"/>
<path d="M47.2535 0.25H44.2676C44.0557 0.25 43.8631 0.371087 43.7989 0.555601L40.415 9.71211L37.031 0.555601C36.9668 0.376853 36.7742 0.25 36.5623 0.25H33.5765C33.3068 0.25 33.082 0.446046 33.082 0.693987V13.3044C33.082 13.5465 33.3068 13.7484 33.5765 13.7484H35.4964C35.7661 13.7484 35.9908 13.5465 35.9908 13.3044V5.0589L39.0023 13.4485C39.0665 13.633 39.2592 13.7541 39.4711 13.7541H41.3589C41.5772 13.7541 41.7634 13.633 41.8276 13.4485L44.8391 5.0589V13.3101C44.8391 13.5523 45.0574 13.7541 45.3335 13.7541H47.2535C47.5231 13.7541 47.7479 13.5523 47.7479 13.3101V0.693987C47.7479 0.451812 47.5231 0.25 47.2535 0.25Z" fill="#161616"/>
<path d="M47.7479 13.3101C47.7479 13.5523 47.5231 13.7541 47.2535 13.7541H45.3335C45.0639 13.7541 44.8391 13.5523 44.8391 13.3101V5.0589L41.8276 13.4485C41.7634 13.633 41.5708 13.7541 41.3589 13.7541H39.4711C39.2592 13.7541 39.0665 13.633 39.0023 13.4485L35.9908 5.0589V13.3101C35.9908 13.5523 35.7661 13.7541 35.4964 13.7541H33.5765C33.3068 13.7541 33.082 13.5523 33.082 13.3101V0.693987C33.082 0.451812 33.3068 0.25 33.5765 0.25H36.5623C36.7742 0.25 36.9668 0.371087 37.031 0.555601L40.415 9.71211L43.7989 0.555601C43.8631 0.376853 44.0557 0.25 44.2676 0.25H47.2535C47.5231 0.25 47.7479 0.446046 47.7479 0.693987V13.3101Z" fill="#161616"/>
<path d="M73.2091 8.47611H73.1192C73.0165 8.55684 72.9459 8.67793 72.9459 8.81054V9.04119C72.9459 9.82537 72.6762 10.4423 72.1496 10.869C71.6231 11.2957 70.8718 11.5148 69.9087 11.5148C68.9327 11.5148 68.1621 11.2842 67.6356 10.8287C67.1026 10.3731 66.833 9.69852 66.833 8.83361V5.18946C66.833 4.32455 67.1026 3.64992 67.6356 3.18287C68.1685 2.72158 68.9327 2.48517 69.9151 2.48517C70.8783 2.48517 71.6295 2.69852 72.1561 3.11944C72.6826 3.54036 72.9523 4.15733 72.9523 4.93575V5.05684C72.9523 5.29901 73.177 5.50082 73.4467 5.50082H75.5015C75.7712 5.50082 75.9959 5.29901 75.9959 5.05684V4.99918C75.9959 4.01895 75.7455 3.13674 75.2446 2.38715C74.7438 1.6318 74.031 1.04366 73.1257 0.628501C72.2139 0.213344 71.1479 0 69.96 0C68.7593 0 67.6805 0.21911 66.7559 0.645799C65.8312 1.07249 65.1057 1.67792 64.5855 2.43904C64.0719 3.20016 63.8086 4.08237 63.8086 5.0626V8.9547C63.8086 9.93493 64.0719 10.8171 64.5855 11.5783C65.0992 12.3394 65.8313 12.939 66.7495 13.36C67.6741 13.7809 68.7529 13.9942 69.9536 13.9942C71.1415 13.9942 72.201 13.7809 73.1128 13.3657C74.0182 12.9506 74.7309 12.3567 75.2318 11.6071C75.7326 10.8517 75.9831 9.97529 75.9831 8.99506V8.80478C75.9831 8.5626 75.7583 8.36079 75.4886 8.36079H73.4339C73.3119 8.36079 73.1963 8.40115 73.1128 8.47035L73.2091 8.47611Z" fill="#161616"/>
<path d="M81.2032 0.25H79.1741C78.9044 0.25 78.6797 0.446046 78.6797 0.693987V13.3044C78.6797 13.5465 78.9044 13.7484 79.1741 13.7484H81.2096C81.4793 13.7484 81.704 13.5465 81.704 13.3044V0.693987C81.6976 0.451812 81.4793 0.25 81.2032 0.25Z" fill="#161616"/>
<path d="M90.6521 2.69481H93.9847C94.2544 2.69481 94.4791 2.49876 94.4791 2.25082V0.693987C94.4791 0.451812 94.2608 0.25 93.9847 0.25H84.2952C84.0255 0.25 83.8008 0.446046 83.8008 0.693987V2.25082C83.8008 2.493 84.0255 2.69481 84.2952 2.69481H87.6278V13.3101C87.6278 13.5523 87.8461 13.7541 88.1222 13.7541H90.1577C90.4274 13.7541 90.6521 13.5523 90.6521 13.3101V2.69481Z" fill="#161616"/>
<path d="M101.593 0.561367C101.529 0.376853 101.337 0.25 101.125 0.25H98.2737C98.0554 0.25 97.8692 0.376853 97.805 0.561367L93.4258 13.1775C93.3808 13.3159 93.4065 13.46 93.5028 13.5696C93.5991 13.6849 93.7404 13.7484 93.9009 13.7484H96.0327C96.251 13.7484 96.4501 13.6157 96.5079 13.4255L97.1949 11.2113H102.197L102.884 13.4255C102.942 13.6157 103.141 13.7484 103.359 13.7484H105.504C105.664 13.7484 105.806 13.6849 105.902 13.5696C105.998 13.4543 106.024 13.3101 105.973 13.1717L101.593 0.561367ZM97.927 8.89333L99.6928 3.20799L101.459 8.89333H97.927Z" fill="#161616"/>
</svg>
