<svg width="29" height="28" viewBox="0 0 29 28" fill="none" xmlns="http://www.w3.org/2000/svg">
<path d="M3.875 3.96484L6.24563 4.37515L7.34319 17.4512C7.43095 18.5191 8.32335 19.3386 9.39469 19.3352H21.828C22.8503 19.3375 23.7176 18.5852 23.8624 17.5732L24.944 10.0988C25.0648 9.26343 24.4847 8.48842 23.6504 8.36761C23.5774 8.35735 6.6263 8.35165 6.6263 8.35165" stroke="#161616" stroke-width="1.37392" stroke-linecap="round" stroke-linejoin="round"/>
<path fill-rule="evenodd" clip-rule="evenodd" d="M8.89345 23.2852C9.23651 23.2852 9.51346 23.5632 9.51346 23.9052C9.51346 24.2482 9.23651 24.5263 8.89345 24.5263C8.55039 24.5263 8.27344 24.2482 8.27344 23.9052C8.27344 23.5632 8.55039 23.2852 8.89345 23.2852Z" fill="#161616" stroke="#161616" stroke-width="1.37392" stroke-linecap="round" stroke-linejoin="round"/>
<path fill-rule="evenodd" clip-rule="evenodd" d="M21.7528 23.2852C22.0959 23.2852 22.374 23.5632 22.374 23.9052C22.374 24.2482 22.0959 24.5263 21.7528 24.5263C21.4098 24.5263 21.1328 24.2482 21.1328 23.9052C21.1328 23.5632 21.4098 23.2852 21.7528 23.2852Z" fill="#161616" stroke="#161616" stroke-width="1.37392" stroke-linecap="round" stroke-linejoin="round"/>
</svg>
