<svg width="39" height="32" viewBox="0 0 39 32" fill="none" xmlns="http://www.w3.org/2000/svg">
<path d="M3.19824 13.8454C13.3988 9.47064 20.2007 6.58651 23.6041 5.19305C33.3214 1.21442 35.3406 0.523286 36.6566 0.500221C36.9461 0.495445 37.5933 0.56606 38.0125 0.900924C38.3665 1.18368 38.4639 1.56564 38.5105 1.83372C38.5571 2.1018 38.6152 2.71249 38.569 3.18967C38.0425 8.63611 35.7639 21.8532 34.6048 27.9533C34.1143 30.5345 33.1485 31.3999 32.2135 31.4846C30.1815 31.6687 28.6385 30.1627 26.6704 28.8928C23.5908 26.9056 21.851 25.6685 18.8616 23.7294C15.4069 21.4884 17.6465 20.2567 19.6153 18.2437C20.1305 17.7169 29.0835 9.70071 29.2568 8.97352C29.2784 8.88257 29.2986 8.54356 29.094 8.36455C28.8894 8.18554 28.5874 8.24676 28.3695 8.29544C28.0606 8.36445 23.1408 11.5654 13.6102 17.8984C12.2137 18.8424 10.9488 19.3023 9.81556 19.2782C8.56621 19.2516 6.16296 18.5828 4.37639 18.0111C2.18509 17.31 0.443489 16.9392 0.595143 15.7484C0.674134 15.1282 1.54183 14.4938 3.19824 13.8454Z" fill="#161616"/>
</svg>
