<svg width="33" height="32" viewBox="0 0 33 32" fill="none" xmlns="http://www.w3.org/2000/svg">
<path fill-rule="evenodd" clip-rule="evenodd" d="M27.7859 4.6C24.7859 1.6 20.7859 0 16.5859 0C7.78594 0 0.585938 7.2 0.585938 16C0.585938 18.8 1.38595 21.6 2.78595 24L0.585938 32L8.98596 29.8C11.386 31 13.9859 31.8 16.5859 31.8C25.3859 31.8 32.5859 24.6 32.5859 15.8C32.5859 11.6 30.7859 7.6 27.7859 4.6ZM16.5859 29.2C14.1859 29.2 11.7859 28.6 9.78595 27.4L9.38593 27.2L4.38593 28.6L5.78595 23.8L5.38593 23.2C3.98593 21 3.38593 18.6 3.38593 16.2C3.38593 9 9.38594 3 16.5859 3C20.1859 3 23.386 4.4 25.986 6.8C28.586 9.4 29.7859 12.6 29.7859 16.2C29.7859 23.2 23.9859 29.2 16.5859 29.2ZM23.7859 19.2C23.386 19 21.386 18 20.986 18C20.586 17.8 20.3859 17.8 20.1859 18.2C19.9859 18.6 19.186 19.4 18.986 19.8C18.786 20 18.5859 20 18.1859 20C17.7859 19.8 16.586 19.4 14.986 18C13.786 17 12.9859 15.6 12.7859 15.2C12.5859 14.8 12.786 14.6 12.986 14.4C13.186 14.2 13.3859 14 13.5859 13.8C13.7859 13.6 13.786 13.4 13.986 13.2C14.186 13 13.986 12.8 13.986 12.6C13.986 12.4 13.1859 10.4 12.7859 9.6C12.5859 9 12.186 9 11.986 9C11.786 9 11.5859 9 11.1859 9C10.9859 9 10.5859 9 10.1859 9.4C9.78591 9.8 8.78595 10.8 8.78595 12.8C8.78595 14.8 10.1859 16.6 10.3859 17C10.5859 17.2 13.1859 21.4 17.1859 23C20.5859 24.4 21.186 24 21.986 24C22.786 24 24.3859 23 24.5859 22.2C24.9859 21.2 24.986 20.4 24.7859 20.4C24.5859 19.4 24.1859 19.4 23.7859 19.2Z" fill="#161616"/>
</svg>
