<svg width="42" height="24" viewBox="0 0 42 24" fill="none" xmlns="http://www.w3.org/2000/svg">
<path fill-rule="evenodd" clip-rule="evenodd" d="M6.52344 0H2.10192C0.838614 0 0.585938 0.594622 0.585938 1.25012C0.585938 2.42105 2.08495 8.22821 7.56554 15.9087C11.2193 21.1538 16.367 23.9971 21.0514 23.9971C23.8619 23.9971 24.2096 23.3656 24.2096 22.2779V18.3135C24.2096 17.0505 24.4759 16.7984 25.3658 16.7984C26.0217 16.7984 27.1459 17.1263 29.7691 19.6552C32.7671 22.6525 33.2613 23.9971 34.9476 23.9971H39.3691C40.6325 23.9971 41.2641 23.3656 40.8997 22.1193C40.501 20.8773 39.0696 19.0751 37.1703 16.939C36.1397 15.7214 34.5939 14.4101 34.1255 13.7544C33.4697 12.9114 33.657 12.5367 34.1255 11.7875C34.1255 11.7875 39.5124 4.20062 40.0746 1.62498C40.3556 0.68821 40.0746 0 38.7375 0H34.3159C33.1917 0 32.6734 0.594622 32.3923 1.25012C32.3923 1.25012 30.1439 6.72953 26.9586 10.2888C25.928 11.319 25.4595 11.6469 24.8974 11.6469C24.6163 11.6469 24.2095 11.319 24.2095 10.3825V1.62498C24.2095 0.500907 23.8833 0 22.9463 0H15.9981C15.2956 0 14.873 0.52162 14.873 1.01609C14.873 2.08155 16.4657 2.32733 16.6299 5.32457V11.8343C16.6299 13.2615 16.372 13.5203 15.8099 13.5203C14.311 13.5203 10.6648 8.01641 8.50231 1.71857C8.07858 0.494466 7.65345 0 6.52344 0Z" fill="white"/>
</svg>
